<?xml version="1.0"?><svg width="640" height="480" xmlns="http://www.w3.org/2000/svg">
 <g>
  <path fill-rule="evenodd" clip-rule="evenodd" fill="#FFFFFF" d="m191.026978,4.198c-2.098999,4.235 -5.076965,7.59 -7,12c1.110016,7.135 11.502991,3.079 15,1c1.429016,2.238001 3.210022,4.122999 5,6c8.420013,-1.172001 15.47699,-0.191 24,-2c7.813019,-1.657999 13.692017,-6.221 23,-1c3.052002,1.712 9.231995,7.731001 10,9c1.012024,1.673 1.402008,7.463999 3,11.000002c0.807007,1.785 2.761017,3.828999 3,5c2.241028,10.957996 -0.73999,24.439999 0,34.999996c6.004028,7.539001 3.183014,14.013 6,23c-4.336975,4.752998 -11.475983,0.972 -18,2c-2.973999,0.469002 -4.699982,2.798004 -8,4c-10.21698,3.723 -24.005981,2.971001 -29,12c8.085022,3.75 16.02002,-7.264999 28,-6c-0.617004,6.717003 -10.561981,4.104004 -12,10c0.189026,3.811005 7.387024,0.613014 9,3c-2.000977,8.244003 -1.692993,16.410995 -8,22c-16.721985,-5.205994 -35.010986,-8.998001 -44,-22c-3.769989,-5.452995 -3.64801,-12.776985 -9,-18c-3.484985,0.514999 -1.466003,6.534004 -2,10c-15.763977,11.755997 -37.553986,-18.975998 -18,-28c4.26001,0.074013 6.994019,1.673004 12,1c2.507019,-0.826996 3.163025,-3.502998 5,-5c-5.789001,-12.275002 -4.408997,-28.387997 -11,-37.999996c-0.602997,-3.727001 2.557007,-6.325001 0,-9c-5.184998,-1.328003 -6.199982,5.07 -10,2c1.942017,-10.725002 9.746002,-15.587002 21,-17.000002c2.429016,-3.159 -3.865967,-4.277 -3,-9c1.969025,-6.828 7.989014,-14.502 15,-13zm32,41.000002c-5.779968,-11.117001 -13.399994,-8.234001 -23,-2c-4.609985,2.993999 -10.219971,6.880997 -11,10c10.655029,-0.345001 12.393005,-9.607002 23,-10c3.595032,1.404999 4.251007,5.748997 8,7c10.77301,0.439999 12.817017,-7.850002 21,-10c5.488007,-0.154003 6.853027,3.813 13,3c-2.893982,-19.859001 -23.01297,-1.428001 -31,2zm22,12c4.229004,3.438 10.196014,5.136997 16,6.999996c9.06604,-8.378998 -17.115967,-21.753998 -16,-6.999996zm-31,1c2.299011,-13.776001 -26.253967,-1.591003 -19,10.999996c6.61499,0.615013 8.379028,-3.620987 12,-5.999996c4.622009,-0.921001 6.446045,-1.68 7,-5zm29,30.999996c-0.949982,5.383003 -11.825989,0.841003 -10,9c1.406006,3.927002 9.483032,1.182999 14,2c7.913025,-11.392998 -0.471008,-13.604996 -5,-23c-2.143982,-4.445999 -1.192993,-6.675987 -5,-7c-4.283997,8.833 6.684021,10.490013 6,19zm6,-10c2.050018,3.002998 7.65802,2.127998 10,0c0,-2 0,-4 0,-6c-3.663971,-4.224998 -11.848999,-1.312996 -10,6zm-40,8c12.478027,3.841003 8.388,-15.947998 0,-10c-4.485962,1.778999 -2.691956,7.664001 0,10zm-50.999969,16c10.999969,-4.831001 11.548004,5.410004 15.999969,10c12.788025,-10.738998 -16.024963,-25.960999 -15.999969,-10zm50.999969,22c1.850006,7.552002 14.270996,17.06601 20,9c-1.049988,-2.949997 -6.421997,-1.578003 -9,-3c-7.968994,-5.213997 -4.348999,-15.491997 -4,-23c-1.666992,0 -3.333008,0 -5,0c-0.576965,5.953003 -3.526978,10.766998 -2,17z"/>
  <path fill-rule="evenodd" clip-rule="evenodd" d="m254.026978,43.198002c-6.146973,0.813 -7.511993,-3.154003 -13,-3c-8.182983,2.149998 -10.22699,10.439999 -21,10c-3.748993,-1.251003 -4.404968,-5.595001 -8,-7c-10.606995,0.392998 -12.344971,9.654987 -23,10c0.780029,-3.119003 6.390015,-7.006001 11,-10c9.600006,-6.234001 17.220032,-9.117001 23,2c7.98703,-3.428001 28.106018,-21.859001 31,-2z"/>
  <path fill-rule="evenodd" clip-rule="evenodd" d="m261.026978,64.197998c-5.803986,-1.862999 -11.770996,-3.561996 -16,-6.999996c-1.115967,-14.754002 25.06604,-1.379002 16,6.999996z"/>
  <path fill-rule="evenodd" clip-rule="evenodd" d="m207.026978,63.198002c-3.620972,2.379009 -5.38501,6.615009 -12,5.999996c-7.253967,-12.591 21.299011,-24.775997 19,-10.999996c-0.553955,3.32 -2.377991,4.078999 -7,5z"/>
  <path fill-rule="evenodd" clip-rule="evenodd" d="m105.027008,74.197998c-0.118996,2.881004 0.54599,6.546013 -1,8c-15.70401,-1.628998 -26.779999,-7.887001 -41.999996,-10c0.153988,-2.487999 -1.571011,-3.096001 -2,-5c-0.422012,-3.421997 2.994999,-3.004997 3.999996,-4.999996c13.028992,4.636997 29.043991,6.288998 41,11.999996z"/>
  <path fill-rule="evenodd" clip-rule="evenodd" d="m237.026978,70.197998c3.807007,0.324013 2.856018,2.554001 5,7c4.528992,9.395004 12.913025,11.607002 5,23c-4.516968,-0.817001 -12.593994,1.927002 -14,-2c-1.825989,-8.158997 9.050018,-3.616997 10,-9c0.684021,-8.509987 -10.283997,-10.167 -6,-19z"/>
  <path fill-rule="evenodd" clip-rule="evenodd" d="m259.026978,73.197998c0,2 0,4 0,6c-2.34198,2.127998 -7.949982,3.002998 -10,0c-1.848999,-7.312996 6.336029,-10.224998 10,-6z"/>
  <path fill-rule="evenodd" clip-rule="evenodd" d="m209.026978,77.197998c8.388,-5.947998 12.478027,13.841003 0,10c-2.691956,-2.335999 -4.485962,-8.221001 0,-10z"/>
  <path fill-rule="evenodd" clip-rule="evenodd" fill="#FFFFFF" d="m296.026978,88.197998c-0.346008,8.929001 -5.099976,11.917999 -6,18c-3.052979,1.272003 -7.593994,0.151001 -11,-1c0.832031,-6.499001 -0.950989,-10.381996 -2,-15c5.241028,-3.465996 12.827026,-3.132996 19,-2z"/>
  <path fill-rule="evenodd" clip-rule="evenodd" d="m174.026978,113.197998c-4.451965,-4.589996 -5,-14.831001 -16,-10c-0.024963,-15.960999 28.788025,-0.738998 16,10z"/>
  <path fill-rule="evenodd" clip-rule="evenodd" d="m71.027008,132.197998c-2.687996,-2.645996 -6.476006,-4.190994 -7,-9c13.021996,-5.311996 26.654999,-10.012001 42,-13c4.009003,-4.776001 15.659988,-6.359001 15,2c-0.187012,2.371002 -8.059998,7.422005 -15,9c-2.434006,0.554001 -4.779999,-0.696991 -7,0c-3.115005,0.979004 -5.838005,3.699013 -9,5c-6.477005,2.665009 -13.876007,3.022003 -19,6z"/>
  <path fill-rule="evenodd" clip-rule="evenodd" d="m211.026978,108.197998c1.666992,0 3.333008,0 5,0c-0.348999,7.508003 -3.968994,17.786003 4,23c2.578003,1.421997 7.950012,0.050003 9,3c-5.729004,8.06601 -18.149994,-1.447998 -20,-9c-1.526978,-6.233002 1.423035,-11.046997 2,-17z"/>
  <path fill-rule="evenodd" clip-rule="evenodd" fill="#FFFFFF" d="m279.026978,141.197998c0.04303,5.296005 -9.126984,6.580002 -12,3c-0.973999,-7.822998 10.159027,-8.774994 12,-3z"/>
  <path fill-rule="evenodd" clip-rule="evenodd" fill="#FFFFFF" d="m208.026978,153.197998c10.787018,0.212997 14.617004,7.382996 27,6c-1.063965,12.602997 -5.430969,21.903 -16,25c-2.579956,-10.209991 -8.034973,-18.800003 -11,-31z"/>
  <path fill-rule="evenodd" clip-rule="evenodd" fill="#FFFFFF" d="m275.026978,157.197998c1.478027,6.479004 -8.497986,5.707001 -12,4c-1.419983,-8.492996 7.785034,-5.597 12,-4z"/>
  <path fill-rule="evenodd" clip-rule="evenodd" d="m262.026978,184.197998c1.578003,2.755005 3.402008,5.264999 6,7c-3.667969,6.369995 -13.84198,4.544998 -21,7c-4.927979,1.690002 -9.463989,6.628006 -14,4c3.21701,-7.117004 14.195007,-6.472 20,-11c-8.893005,-3.772003 -17.984009,5.860001 -25,4c3.960022,-9.544998 18.322021,-11.087997 34,-11z"/>
  <path fill-rule="evenodd" clip-rule="evenodd" d="m274.026978,199.197998c-3.083984,4.740997 -16.859009,3.591003 -21,4c0.869019,-2.908997 1.497009,-1.125 4,-1c3.565002,-3.462997 12.847015,-9.024994 17,-3z"/>
  <path fill-rule="evenodd" clip-rule="evenodd" d="m269.026978,207.197998c-2.906006,5.104004 -9.28598,4.126007 -14,6c-5.975983,2.375 -11.297974,8.526001 -19,8c0.223999,-5.110001 6.223999,-4.442993 8,-8c10.651001,1.082001 14.531006,-13.345993 25,-6z"/>
  <path fill-rule="evenodd" clip-rule="evenodd" d="m244.026978,207.197998c0.348999,3.473007 -4.695984,4.186005 -6,3c0,-1 0,-2 0,-3c2.337036,-0.30899 4.131042,-1.957993 6,0z"/>
  <path fill-rule="evenodd" clip-rule="evenodd" d="m42.027012,467.197998c3.220989,-2.054993 7.193996,-2.513 10,-1c3.535999,-3.03299 21.856991,-5.612 21.999996,2c0.140991,7.485016 -31.771008,11.798004 -32.999996,3c-0.24802,-1.777008 1.315987,-2.122009 1,-4z"/>
  <path fill-rule="evenodd" clip-rule="evenodd" fill="#FFFFFF" d="m319.027008,487.197998c-4.595001,4.738007 -14.588013,4.07901 -19,9c0.031006,5.302979 4.992004,5.674011 6,10c-0.182007,12.151978 -5.424011,19.242981 -15,22c-13.574982,-2.09198 -18.003998,-13.328979 -21,-26c2.274994,-12.390991 9.609009,-19.723999 17,-27c14.975983,-2.423004 27.440002,1.269989 32,12z"/>
  <path fill-rule="evenodd" clip-rule="evenodd" d="m103.027008,490.197998c-3.616997,7.394012 -36.151001,12.38501 -32,-2c11.439003,-0.968994 26.539993,-10.23999 32,2z"/>
  <path fill-rule="evenodd" clip-rule="evenodd" fill="#FFFFFF" d="m324.027008,494.197998c3.313995,7.044983 7.192993,16.247986 2,24c-8.404999,-1.072021 -10.256012,4.409973 -17,5c2.179993,-7.963989 1.765991,-14.859009 1,-24c4.307007,-2.026001 7.446991,-5.220001 14,-5z"/>
  <title>Layer 1</title>
  <path fill-rule="evenodd" clip-rule="evenodd" d="m271.026978,41.198002c6.416992,-1.771004 1.812012,-13.958002 1,-18.000002c7.363007,-0.547001 7.723022,8.962 7,16.000002c-0.255005,2.483997 -2.22998,4.228996 -3,7c-3.10498,11.178997 -3.125977,25.537998 0,33.999996c7.140991,-1.782997 16.468994,1.832001 24,-1c5.083008,-13.25 -6.47699,-14.951996 -17,-14c1.457031,-16.417999 5.277008,-34.452997 -4,-45.999998c-2.497986,-3.108999 -4.552979,-6.362 -7,-9c-2.191986,-2.363 -8.763,-3.18 -6,-8c9.929016,-2.21 14.08902,8.009 19,17c5.241028,9.594999 10.25,23.579 5,39.000002c4.032013,3.300999 11.833008,2.834 16,5.999996c1.19101,18.191002 -5.431,28.569 -9,42c4.721008,0.189003 8.639008,-8.078987 10,-13c1.081024,-3.906998 5.723022,-14.958 5,-20c-0.791992,-5.527 -7.010986,-7.812996 -4,-12.999996c5.889008,-3.282001 10.697998,1.452 17,2c16.449005,1.429996 34.692017,-2.187 46,-1c6.661011,0.699009 12.462006,4.262997 19,4.999996c1.912018,2.754013 3.896027,5.438004 7,7c2.433014,18.431999 -10.498993,21.500999 -17,31c3.183014,4.229004 17.207001,-0.921997 21,5c1.247009,1.946999 -4.557983,14.667015 -6,19c-0.987976,2.970001 -0.944977,7.275009 -2,11c-0.918976,3.248001 -2.132996,5.722 -3,9c-1.68399,6.363007 -2.327972,13.807007 -4,20c-0.612976,2.270996 -3.457001,4.775009 -4,7c-0.520996,2.130997 0.473999,4.320007 0,6c-0.746979,2.649002 -4.43399,10.680008 -5,14c-0.483978,2.841003 0.340027,6.242996 0,9c-1.178986,9.563995 -4.241974,18.563004 -6,27c-1.458984,7.001999 -3.02298,13.209015 -5,20c-1.029999,3.540009 -2.765991,10.656006 -2,16c-2.237,7.13501 -7.612,23.054016 -9,32c-0.440979,2.847992 0.608002,5.90799 0,9c-1.842987,9.362 -5.655975,18.565002 -7,28c-1.679993,11.795013 -0.386993,23.882996 -6,34c6.125,6.708008 11.378998,14.061005 19,20c1.21402,0.946014 1.657013,2.84201 3,4c2.460022,2.121002 6.177002,3.528015 8,6c7.807007,10.584991 2.60202,27.846008 11,40c6.232025,0.229004 10.889008,-4.65799 16,-6c3.828003,-1.005005 10.031982,-1.014984 15,-1c12.125,0.036011 18.347046,0.378998 28,8c4.779053,3.77301 7.585999,7.343994 11,12c4.795044,6.537994 8.982056,14.424988 8,28c-0.265991,3.674011 -3.323975,18.630005 -6,24c-5.586975,11.213013 -21.880005,19.197021 -32,28c-11.518982,1.401978 -21.246979,0.504028 -31,2c-4.254974,0.651978 -8.572998,3.401001 -13,4c-9.648987,1.30603 -16.401001,1.265015 -25,4c-11.996002,3.815002 -24.050995,8.893982 -34,15c-3.937988,2.41803 -7.164978,6.91803 -12,8c-4.425995,0.98999 -10.835999,-0.177002 -17,0c-18.886993,0.541016 -30.669983,-1.994995 -46,-11c-4.053986,-7.580994 -13.162994,-10.945007 -18,-18c-2.060974,-3.005981 -3.22998,-7.667969 -5,-11c-1.823975,-3.434998 -3.210999,-7.01001 -6,-10c0.598022,-6.265015 -2.195007,-9.138977 -5,-12c-7.85498,-30.848999 -11.414001,-66.160004 -8,-101c0.752991,-7.687988 3.479004,-15.251984 3,-23c-7.455994,4.285004 -10.026001,15.104004 -14,25c-1.247009,3.104004 -3.447998,5.561005 -4,8c-1.362,6.014008 1.030029,11.963989 -3,16c-0.454987,10.431 -1.92099,22.437012 0,38c0.585022,4.738007 2.132996,9.354004 3,15c2.432007,15.834015 12.093994,36.166992 13,44c1.223999,10.577026 -2.158997,30.322021 -15,22c-2.925995,-4.484009 1.697021,-11.641968 -2,-14c-6.895996,0.770996 -9.610992,5.721985 -13,10c-6.643982,2.252991 -17.106995,6.794983 -26.999985,6c-11.191986,-0.898987 -23.131996,-9.244995 -15,-20c8.015015,1.716003 32.302002,5.203979 37.999985,-4c-2.671997,-9.676025 -14.013,-10.166016 -21.999985,-14c-3.437988,-1.650024 -5.038986,-5.502014 -9,-5c-2.194,-4.807007 -6.464996,-7.534973 -8.999992,-12c-1.587013,-15.22699 7.370995,-31.059998 -7,-35c-4.891014,-10.450989 -9.504997,-19.113007 -14,-31c-3.077011,-8.136993 -6.927002,-27.291992 -4,-40c1.815002,-7.877991 10.374008,-18.645996 15,-26c3.633003,-5.77301 4.832993,-8.032013 9,-13c8.413994,-10.032013 19.616005,-24.259003 28.999977,-33c4.834015,-13.020996 10.460999,-19.091003 14,-33c-4.641998,-3.747009 -8.940979,0.157013 -13,2c-12.188995,5.53299 -24.85498,14.138 -40.999977,16c-6.499008,-12.610992 -22.344009,-24.501984 -26,-39c-0.875,-3.471985 -1.921013,-15.471985 0,-19c6.345993,-11.651993 17.651993,-21.768997 22,-37c1.399002,-5.065994 -4.587997,-2.746002 -4,-7c1.246986,-7.087006 6.968002,-9.697998 11,-14c-0.698013,-3.634995 -4.483994,-4.182999 -5,-8c2.858986,-30.473999 20.146004,-46.520996 40.999977,-59c-8.028992,-12.056 -7.456985,-31.895996 9,-34c-4.955994,-5.183998 -12.844986,-16.167999 -16.999985,-25.999996c-2.608978,-6.174004 -6.169006,-13.847 -4,-24c2.028,-9.494001 11.124023,-16.354002 21.999985,-19.000002c5.427002,-3.906 8.072021,-10.595 11,-17c11.580994,-9.587 31.569031,-13.113 51,-12c12.269012,0.703 21.400024,8.233 30,11c2.734009,6.102 7.778992,7.221 9,14c0.835999,4.642 -1.696991,9.039 -1,14c0.831024,5.912001 5.820007,10.394999 7,15.000002zm-95,-24.000002c-0.865967,4.723 5.429016,5.841 3,9c-11.253998,1.413 -19.057983,6.275 -21,17.000002c3.800018,3.07 4.815002,-3.328003 10,-2c2.557007,2.674999 -0.602997,5.272999 0,9c6.591003,9.612 5.210999,25.724987 11,37.999996c-1.836975,1.497002 -2.492981,4.173004 -5,5c-5.005981,0.673004 -7.73999,-0.925987 -12,-1c-19.553986,9.024002 2.236023,39.755997 18,28c0.533997,-3.465996 -1.484985,-9.485001 2,-10c5.35199,5.223015 5.230011,12.547005 9,18c8.989014,13.001999 27.278015,16.794006 44,22c6.307007,-5.589005 5.999023,-13.755997 8,-22c-1.612976,-2.386986 -8.810974,0.811005 -9,-3c1.438019,-5.895996 11.382996,-3.282997 12,-10c-11.97998,-1.264999 -19.914978,9.75 -28,6c4.994019,-9.028999 18.78302,-8.277 29,-12c3.300018,-1.201996 5.026001,-3.530998 8,-4c6.524017,-1.028 13.663025,2.752998 18,-2c-2.816986,-8.987 0.004028,-15.460999 -6,-23c-0.73999,-10.559998 2.241028,-24.042 0,-34.999996c-0.238983,-1.171001 -2.192993,-3.215 -3,-5c-1.597992,-3.536003 -1.987976,-9.327002 -3,-11.000002c-0.768005,-1.268999 -6.947998,-7.288 -10,-9c-9.307983,-5.221 -15.186981,-0.657999 -23,1c-8.52301,1.809 -15.579987,0.827999 -24,2c-1.789978,-1.877001 -3.570984,-3.761999 -5,-6c-3.497009,2.079 -13.889984,6.135 -15,-1c1.923035,-4.41 4.901001,-7.765 7,-12c-7.010986,-1.502 -13.030975,6.172 -15,13zm101,72.999998c1.049011,4.618004 2.832031,8.500999 2,15c3.406006,1.151001 7.947021,2.272003 11,1c0.900024,-6.082001 5.653992,-9.070999 6,-18c-6.172974,-1.132996 -13.758972,-1.465996 -19,2zm26.000031,24c-11.052002,-0.144997 -36.134003,-5.120987 -45,-2c-6.493011,2.286003 -9.102997,16.195007 -12,24c-2.554993,6.880005 -3.839996,8.783005 -2,14c-6.595978,9.070007 -5.785004,25.548004 -10,37c-3.009979,2.716003 -4.462006,-2.188004 -9,-1c-5.819,11.181 -13.354004,20.645996 -18,33c1.182007,3.693008 1.10202,7.762009 0,12c2.779022,1.990005 1.544006,5.035004 3,8c2.407013,4.903015 8.770996,7.79599 8,12c-12.730011,-2.602997 -13.652008,-17.013992 -20,-26c-12.303009,6.650009 -3.591003,28.205017 2,33c10.178986,8.730011 26.78299,-1.692993 24,-17c7.334991,-4.526001 16.779999,-14.597 26,-19c3.042023,-1.453003 12.016998,-5.979004 15,0c0.498016,5.165009 -7.516998,1.81601 -10,4c-10.127991,5.205002 -18.317993,12.348999 -27,19c-0.104004,3.104004 3.145996,2.854004 2,7c-5.899994,20.330994 -7.993988,49.022003 -9,71c-5.77298,9.907013 -2.856995,29.656006 -4,36c-0.459015,2.548004 -2.651001,4.476013 -3,7c-0.627991,4.54599 0.540985,10.246002 0,15c-0.765991,6.734009 -3.363007,13.330994 -4,20c-1.957977,20.492004 -0.149017,49.460999 2,64c0.990997,6.70401 -0.028992,14.192017 2,21c0.675018,2.265991 3.09201,4.428009 4,7c5.194,14.718018 7.462006,25.340027 14,35c6.082001,8.986023 10.753021,12.616028 20,18c5.253998,3.059021 11.061981,6.989014 15,8c30.251007,7.763 52.610992,-7.088989 60,-30c-12.51001,-2.294006 -21.328003,12.750977 -34,13c-6.429993,0.125977 -10.045013,-3.039001 -17,-5c-6.001984,-10.664001 -14.789001,-15.072998 -13,-31c2.480988,-22.093994 17.238007,-31.966003 35,-37c9.147003,3.372009 28.237,-3.636993 40,-7c-1.195007,-8.234985 -4.061005,-16.294006 -5,-25c-1.049011,-9.710999 0.248993,-19.618011 1,-30c1.319,-18.243011 0.354004,-31.703003 2,-43c1.187988,-8.154999 1.854004,-18.21701 4,-30c0.39801,-2.187988 2.421997,-3.731995 3,-6c3.407013,-13.355988 3.130005,-28.209991 6,-42c2.769012,-13.302002 10.218994,-26.057007 10,-40c6.282013,-8.884003 4.800995,-22.612 8,-36c0.47699,-1.996002 2.497009,-4.237 3,-6c1.397003,-4.897003 0.776001,-10.317993 2,-15c1.528992,-5.849991 5.904999,-10.807999 4,-17c4.748016,-6.906998 6.652008,-16.196991 7,-25c3.743988,-8.589996 6.880005,-17.786995 9,-28c-24.593994,-3.174995 -61.725006,0.357002 -89,0zm-84.000031,70c10.569031,-3.097 14.936035,-12.397003 16,-25c-12.382996,1.382996 -16.212982,-5.787003 -27,-6c2.965027,12.199997 8.420044,20.790009 11,31zm201,336c6.390015,-5.182007 16.460022,-10.203979 22,-18c1.254028,-1.763977 1.592041,-5.457001 3,-8c1.426025,-2.575989 4.332031,-4.97699 5,-7c2.149048,-6.513 1.828003,-17.105011 0,-22c-9.059937,-24.247986 -46.903961,-32.505005 -66.999969,-12c-23.190002,2.550995 -43.792999,14.343994 -69,18c2.94101,7.631012 11.582001,9.847992 16,19c7.912994,16.39502 4.195007,39.797974 -4,54c28.300995,-11.03302 55.769989,-22.896973 93.999969,-24zm-133,-45c-7.390991,7.276001 -14.724976,14.609009 -17,27c2.996033,12.671021 7.425018,23.90802 21,26c9.576019,-2.757019 14.818024,-9.848022 15,-22c-1.007996,-4.325989 -5.968994,-4.697021 -6,-10c4.412018,-4.92099 14.404999,-4.261993 19,-9c-4.559967,-10.730011 -17.023987,-14.423004 -32,-12zm23.000031,24c0.765991,9.140991 1.179993,16.036011 -1,24c6.743988,-0.590027 8.595001,-6.072021 17,-5c5.192993,-7.752014 1.313995,-16.955017 -2,-24c-6.553009,-0.220001 -9.692993,2.973999 -14,5z" fill="black"/>
  <path fill-rule="evenodd" clip-rule="evenodd" fill="#FFFFFF" d="m326.027008,544.197998c8.195007,-14.202026 11.912994,-37.60498 4,-54c-4.417999,-9.152008 -13.05899,-11.368988 -16,-19c25.207001,-3.656006 45.809998,-15.449005 69,-18c20.096008,-20.505005 57.940033,-12.247986 66.999969,12c1.828003,4.894989 2.149048,15.487 0,22c-0.667969,2.02301 -3.573975,4.424011 -5,7c-1.407959,2.542999 -1.745972,6.236023 -3,8c-5.539978,7.796021 -15.609985,12.817993 -22,18c-38.22998,1.103027 -65.698975,12.96698 -93.999969,24z"/>
  <path fill-rule="evenodd" clip-rule="evenodd" fill="#FFFFFF" d="m392.027008,114.197998c-2.119995,10.213005 -5.256012,19.410004 -9,28c-0.347992,8.803009 -2.251984,18.093002 -7,25c1.904999,6.192001 -2.471008,11.150009 -4,17c-1.223999,4.682007 -0.602997,10.102997 -2,15c-0.502991,1.763 -2.52301,4.003998 -3,6c-3.199005,13.388 -1.717987,27.115997 -8,36c0.218994,13.942993 -7.230988,26.697998 -10,40c-2.869995,13.790009 -2.592987,28.644012 -6,42c-0.578003,2.268005 -2.60199,3.812012 -3,6c-2.145996,11.78299 -2.812012,21.845001 -4,30c-1.645996,11.296997 -0.681,24.756989 -2,43c-0.751007,10.381989 -2.049011,20.289001 -1,30c0.938995,8.705994 3.804993,16.765015 5,25c-11.763,3.363007 -30.852997,10.372009 -40,7c-17.761993,5.033997 -32.519012,14.906006 -35,37c-1.789001,15.927002 6.998016,20.335999 13,31c6.954987,1.960999 10.570007,5.125977 17,5c12.671997,-0.249023 21.48999,-15.294006 34,-13c-7.389008,22.911011 -29.748993,37.763 -60,30c-3.938019,-1.010986 -9.746002,-4.940979 -15,-8c-9.246979,-5.383972 -13.917999,-9.013977 -20,-18c-6.537994,-9.659973 -8.806,-20.281982 -14,-35c-0.90799,-2.571991 -3.324982,-4.734009 -4,-7c-2.028992,-6.807983 -1.009003,-14.29599 -2,-21c-2.149017,-14.539001 -3.957977,-43.507996 -2,-64c0.636993,-6.669006 3.234009,-13.265991 4,-20c0.540985,-4.753998 -0.627991,-10.45401 0,-15c0.348999,-2.523987 2.540985,-4.451996 3,-7c1.143005,-6.343994 -1.77298,-26.092987 4,-36c1.006012,-21.977997 3.100006,-50.669006 9,-71c1.145996,-4.145996 -2.104004,-3.895996 -2,-7c8.682007,-6.651001 16.872009,-13.794998 27,-19c2.483002,-2.18399 10.498016,1.165009 10,-4c-2.983002,-5.979004 -11.957977,-1.453003 -15,0c-9.220001,4.403 -18.665009,14.473999 -26,19c2.78299,15.307007 -13.821014,25.730011 -24,17c-5.591003,-4.794983 -14.303009,-26.349991 -2,-33c6.347992,8.986008 7.269989,23.397003 20,26c0.770996,-4.20401 -5.592987,-7.096985 -8,-12c-1.455994,-2.964996 -0.220978,-6.009995 -3,-8c1.10202,-4.237991 1.182007,-8.306992 0,-12c4.645996,-12.354004 12.181,-21.819 18,-33c4.537994,-1.188004 5.990021,3.716003 9,1c4.214996,-11.451996 3.404022,-27.929993 10,-37c-1.839996,-5.216995 -0.554993,-7.119995 2,-14c2.897003,-7.804993 5.506989,-21.713997 12,-24c8.865997,-3.120987 33.947998,1.855003 45,2c27.274994,0.357002 64.406006,-3.174995 89,0zm-136.000031,18c9.088013,13.746002 -7.672974,26.919998 -3,39c18.88501,2.587997 36.40802,3.561005 30,-18c4.116028,-3.882996 6.076019,-9.923996 5,-19c-7.904968,-7.835999 -21.146973,-6.608002 -32,-2zm39,6c1.486023,11.264999 -4.705994,21.404999 -8,31c1.834015,1.167007 3.386017,2.613998 5,4c2.928009,0.261002 3.072021,-2.261002 6,-2c3.791016,-11.875992 8.548004,-22.785995 10,-37c-6.333984,-1.908005 -9.184967,0.998001 -13,4zm21.000031,1c1.612,10.875 -7.338989,19.136002 -7,32c1.763,0.903 3.097015,2.237 4,4c6.333008,0 12.666992,0 19,0c1.503998,-2.830002 4.044006,-4.623001 4,-9c-0.778992,-0.220993 -1.161987,-0.837006 -1,-2c-3.890991,-4.011002 -10.69101,0.844009 -14,-4c0.794006,-8.979996 9.235016,-15.285004 6,-25c-3.774017,-2.259995 -8.285004,2.009995 -11,4zm33,-1c1.32901,16.272003 -8.115997,20.119995 -8,37c6.639008,1.736008 15.890015,-1.033005 25,0c1.661987,-3.419998 4.42099,-5.098999 4,-8c-1.053009,-7.252991 -10.790985,-2.505005 -17,-4c1.462006,-9.871994 6.875,-15.791992 8,-26c-3.277008,-4.196991 -8.96701,-0.845001 -12,1zm-121.000031,57c7.015991,1.860001 16.106995,-7.772003 25,-4c-5.804993,4.528 -16.78299,3.882996 -20,11c4.536011,2.628006 9.072021,-2.309998 14,-4c7.15802,-2.455002 17.332031,-0.630005 21,-7c-2.597992,-1.735001 -4.421997,-4.244995 -6,-7c-15.677979,-0.087997 -30.039978,1.455002 -34,11zm29,7c-2.502991,-0.125 -3.130981,-1.908997 -4,1c4.140991,-0.408997 17.916016,0.740997 21,-4c-4.152985,-6.024994 -13.434998,-0.462997 -17,3zm-13,11c-1.776001,3.557007 -7.776001,2.889999 -8,8c7.702026,0.526001 13.024017,-5.625 19,-8c4.71402,-1.873993 11.093994,-0.895996 14,-6c-10.468994,-7.345993 -14.348999,7.082001 -25,6zm-6,-6c0,1 0,2 0,3c1.304016,1.186005 6.348999,0.473007 6,-3c-1.868958,-1.957993 -3.662964,-0.30899 -6,0z"/>
  <text fill="#000000" stroke-width="0" x="314" y="177" id="svg_1" font-size="32" font-family="Comic Sans MS" text-anchor="middle" xml:space="preserve">What</text>
  <text fill="#000000" stroke-width="0" x="316" y="222" id="svg_2" font-size="32" font-family="Comic Sans MS" text-anchor="middle" xml:space="preserve">should</text>
  <text fill="#000000" stroke-width="0" x="297" y="263" id="svg_3" font-size="32" font-family="Comic Sans MS" text-anchor="middle" xml:space="preserve">I do?</text>
 </g>
</svg>